<?xml version="1.0" standalone="no"?>
<!DOCTYPE svg PUBLIC "-//W3C//DTD SVG 1.1//EN" "http://www.w3.org/Graphics/SVG/1.1/DTD/svg11.dtd" >
<svg xmlns="http://www.w3.org/2000/svg">
<metadata>
Created by FontForge 20120731 at Thu Sep 29 11:10:18 2016
 By admin
</metadata>
<defs>
<font id="iconfont" horiz-adv-x="1024" >
  <font-face 
    font-family="iconfont"
    font-weight="500"
    font-stretch="normal"
    units-per-em="1024"
    panose-1="2 0 6 3 0 0 0 0 0 0"
    ascent="896"
    descent="-128"
    x-height="792"
    bbox="-0.0285714 -224 1040.78 896.333"
    underline-thickness="50"
    underline-position="-100"
    unicode-range="U+0078-E61C"
  />
<missing-glyph horiz-adv-x="374" 
d="M34 0v682h272v-682h-272zM68 34h204v614h-204v-614z" />
    <glyph glyph-name=".notdef" horiz-adv-x="374" 
d="M34 0v682h272v-682h-272zM68 34h204v614h-204v-614z" />
    <glyph glyph-name=".null" horiz-adv-x="0" 
 />
    <glyph glyph-name="nonmarkingreturn" horiz-adv-x="341" 
 />
    <glyph glyph-name="x" unicode="x" horiz-adv-x="1001" 
d="M281 543q-27 -1 -53 -1h-83q-18 0 -36.5 -6t-32.5 -18.5t-23 -32t-9 -45.5v-76h912v41q0 16 -0.5 30t-0.5 18q0 13 -5 29t-17 29.5t-31.5 22.5t-49.5 9h-133v-97h-438v97zM955 310v-52q0 -23 0.5 -52t0.5 -58t-10.5 -47.5t-26 -30t-33 -16t-31.5 -4.5q-14 -1 -29.5 -0.5
t-29.5 0.5h-32l-45 128h-439l-44 -128h-29h-34q-20 0 -45 1q-25 0 -41 9.5t-25.5 23t-13.5 29.5t-4 30v167h911zM163 247q-12 0 -21 -8.5t-9 -21.5t9 -21.5t21 -8.5q13 0 22 8.5t9 21.5t-9 21.5t-22 8.5zM316 123q-8 -26 -14 -48q-5 -19 -10.5 -37t-7.5 -25t-3 -15t1 -14.5
t9.5 -10.5t21.5 -4h37h67h81h80h64h36q23 0 34 12t2 38q-5 13 -9.5 30.5t-9.5 34.5q-5 19 -11 39h-368zM336 498v228q0 11 2.5 23t10 21.5t20.5 15.5t34 6h188q31 0 51.5 -14.5t20.5 -52.5v-227h-327z" />
    <glyph glyph-name="uniE600" unicode="&#xe600;" horiz-adv-x="1041" 
d="M1040.5 497.5q-1.5 -14.5 -12.5 -23.5t-25 -6q-72 13 -128 60q-28 24 -78.5 70t-59.5 54q-70 62 -135 77q-1 1 -40 7v-91q43 -2 73 -26q50 -38 50 -103q1 -229 0 -435q0 -45 -25 -78t-68 -46q-15 -4 -40 -4h-209h-210q-83 0 -120 71q-12 25 -12 62q-1 398 -1 417
q-1 60 33 99.5t91 42.5v251h177v-30q0 -19 12 -31t30 -12t29.5 12t12.5 31v30h177v-96q102 -5 198 -94q91 -84 123 -111q57 -49 129 -64q17 -4 23.5 -11.5t5 -22zM107 -66q4 1 14 1h443q12 0 20 -2q9 -3 15 -12t6 -19q-1 -12 -9 -20t-19 -9q-3 -1 -15 -1h-219h-226
q-24 0 -33 18q-7 14 0 27.5t23 16.5z" />
    <glyph glyph-name="uniE601" unicode="&#xe601;" 
d="M849 289q-32 70 -47.5 130t-17 94t5.5 61.5t11.5 34t7.5 10.5q2 2 0 5q-1 2 -4 1q-5 -1 -18 -8t-38 -25.5t-45 -41.5t-33 -60.5t-8 -79.5q-13 12 -27 26.5t-37.5 44t-41.5 60t-34 73t-21 84.5t4 92.5t34 99.5q2 3 0 5t-5 1q-7 -3 -20.5 -10.5t-43.5 -32t-53 -55.5
q-103 -140 -32 -350q24 -93 -40 -177q12 45 11 90q-4 122 -107 182q-2 1 -4.5 -0.5t-1.5 -4.5q1 -7 3 -17t4.5 -39t1.5 -54.5t-9 -55t-24 -48.5q-42 -51 -64.5 -120t-5.5 -133q33 -118 199 -178q42 -13 86 -21q3 -1 4 3q1 3 -2 5q-19 8 -34 18t-28.5 26t-19.5 34.5t-4 45
t14 56.5q48 104 26 156q65 -36 53 -98q0 -3 2 -4.5t5 0.5q1 1 7 6.5t17.5 18t22 28t20.5 37t15 43.5t2.5 49t-13.5 54q11 -7 21.5 -15.5t24 -26.5t20.5 -39.5t6.5 -55t-13.5 -71.5q-6 -25 1.5 -51t14 -34t12.5 -15q2 -2 4.5 -0.5t1.5 4.5q-2 5 -3.5 11t-3.5 23.5t0 32.5
t12.5 33t28.5 31q-11 -70 15 -101q43 -53 35 -108q-7 -44 -50 -72q-3 -2 -1.5 -5t4.5 -3q158 53 208 163q46 100 -11 238z" />
    <glyph glyph-name="uniE602" unicode="&#xe602;" 
d="M995 418q0 24 -15 46q-1 1 -92 98.5t-181 193.5l-90 96q-37 40 -92 40h-1h-2v0q-54 0 -91 -40q-361 -385 -363 -388q-15 -22 -16 -46v-7q0 -39 28 -67t67 -28h23v-342q0 -41 33 -70.5t79 -29.5t78.5 29.5t32.5 70.5v342h261v-342q0 -41 33 -70.5t79 -29.5t78.5 29.5
t32.5 70.5v342h23q39 0 67 28t28 67v1v1v5zM853 762l1 -1l72 -75q7 -8 18 -8.5t19 7.5l1 1q5 5 7 12v3q1 3 1 4l8 141q1 15 -9 26h-1v0q-11 11 -26 11h-141h-4q-2 0 -3 -1q-7 -1 -12 -5l-1 -1q-8 -8 -8.5 -19t7.5 -19z" />
    <glyph glyph-name="uniE603" unicode="&#xe603;" horiz-adv-x="1025" 
d="M409 444q52 73 82 158q4 12 -2.5 21.5t-18.5 9.5h-156q-18 0 -22 -18q-7 -29 -66 -142.5t-76 -174.5q-11 -38 -11.5 -82.5t7 -86t16 -76.5t18 -69.5t11.5 -51.5q2 -8 8.5 -13.5t14.5 -5.5h77q11 0 17.5 8t4.5 19q-8 45 -30 91q-12 23 -43.5 79t-45.5 89.5t-9 49.5
q3 9 27 26.5t55.5 37t72 55.5t69.5 76zM144 26q-15 77 -16.5 159.5t9.5 129.5q13 55 59.5 156t53.5 135q2 10 -4.5 18.5t-17.5 8.5h-118q-9 0 -15.5 -7t-6.5 -16v-674q0 -10 6.5 -16.5t15.5 -6.5h34q11 0 18 8.5t4 19.5q0 2 -9 33.5t-13 51.5zM616 444q-53 73 -83 158
q-4 12 3 21.5t19 9.5h156q18 0 22 -18q7 -29 65.5 -142.5t75.5 -174.5q11 -38 11.5 -82.5t-6.5 -86t-16 -76.5t-18 -69.5t-12 -51.5q-1 -8 -7.5 -13.5t-15.5 -5.5h-76q-11 0 -18 8t-5 19q8 45 31 91q11 23 42.5 79t46 89.5t8.5 49.5q-2 9 -26.5 26.5t-55.5 37t-71.5 55.5
t-69.5 76zM880 26q15 77 17 159.5t-9 129.5q-13 55 -60 156t-54 135q-2 10 5 18.5t18 8.5h117q9 0 16 -7t7 -16v-674q0 -10 -7 -16.5t-16 -6.5h-34q-11 0 -18 8.5t-4 19.5q1 2 9.5 33.5t12.5 51.5zM916 646h-808q-8 0 -14 6t-6 15q0 8 6 14t14 6h808q9 0 15 -6t6 -14
q0 -9 -6 -15t-15 -6z" />
    <glyph glyph-name="uniE604" unicode="&#xe604;" 
d="M437 656l10 -9q28 34 72 34q40 0 67 -28l10 9q-32 32 -77 32q-50 0 -82 -38zM381 706l10 -9q50 56 125 56q70 0 120 -50l9 9q-53 54 -129 54q-81 0 -135 -60zM518 851q-59 0 -111 -24t-89 -66l12 -10q35 40 84.5 63t104.5 23q104 0 178 -73l9 9q-78 78 -188 78zM625 -83
h-226q-31 0 -53.5 22.5t-22.5 53.5v447q0 31 22.5 53.5t53.5 22.5h226q31 0 53.5 -22.5t22.5 -53.5v-447q0 -31 -22.5 -53.5t-53.5 -22.5zM399 500q-25 0 -42.5 -17.5t-17.5 -42.5v-447q0 -25 17.5 -42.5t42.5 -17.5h226q25 0 42.5 17.5t17.5 42.5v447q0 25 -17.5 42.5
t-42.5 17.5h-226zM612 284h-200q-12 0 -20.5 8.5t-8.5 20.5v114q0 12 8.5 20.5t20.5 8.5h200q12 0 20.5 -8.5t8.5 -20.5v-114q0 -12 -8.5 -20.5t-20.5 -8.5zM412 441q-5 0 -9 -4t-4 -10v-114q0 -6 4 -9.5t9 -3.5h200q5 0 9 3.5t4 9.5v114q0 6 -4 10t-9 4h-200zM512 120
q-16 0 -28 11.5t-12 28t12 28.5t28 12t28 -12t12 -28.5t-12 -28t-28 -11.5zM512 184q-10 0 -17 -7t-7 -17t7 -17t17 -7t17 7t7 17t-7 17t-17 7zM512 120q-16 0 -28 11.5t-12 28t12 28.5t28 12t28 -12t12 -28.5t-12 -28t-28 -11.5zM512 184q-10 0 -17 -7t-7 -17t7 -17t17 -7
t17 7t7 17t-7 17t-17 7zM512 -13q-16 0 -28 11.5t-12 28t12 28.5t28 12t28 -12t12 -28.5t-12 -28t-28 -11.5zM512 51q-10 0 -17 -7t-7 -17t7 -17t17 -7t17 7t7 17t-7 17t-17 7zM512 -13q-16 0 -28 11.5t-12 28t12 28.5t28 12t28 -12t12 -28.5t-12 -28t-28 -11.5zM512 51
q-10 0 -17 -7t-7 -17t7 -17t17 -7t17 7t7 17t-7 17t-17 7z" />
    <glyph glyph-name="uniE605" unicode="&#xe605;" 
d="M286 179l-46 -13q-9 -2 -14 -10.5t-2.5 -18t11 -14.5t17.5 -2l46 12q9 3 14 11.5t2.5 17.5t-11 14t-17.5 3zM342 42l-33 -33q-7 -7 -7 -17t6.5 -16.5t16.5 -6.5t17 6l33 34q7 7 7 16.5t-7 16.5t-16.5 7t-16.5 -7zM792 161l-47 12q-10 2 -19 -3t-11.5 -14t2.5 -17.5
t15 -11.5l47 -12q10 -3 19 2t11.5 14.5t-2.5 18t-15 11.5zM685 36q-7 7 -17 7t-17.5 -7t-7.5 -17t8 -17l34 -33q7 -7 17.5 -7t17.5 7t7 16.5t-7 16.5zM527.5 32q-9.5 0 -16.5 -7t-7 -17v-47q0 -9 7 -16t16.5 -7t16.5 7t7 16v47q0 10 -7 17t-16.5 7zM551 598v1v212
q0 8 -6.5 14.5t-16.5 6.5t-17 -6.5t-7 -14.5v-211q-94 -4 -175 -56t-128.5 -138.5t-47.5 -185.5v-22h188q11 -60 60.5 -100.5t114.5 -40.5t114.5 40.5t60.5 100.5h188v22q0 145 -95.5 254.5t-232.5 123.5zM516 102q-47 0 -83 27t-46 69h258q-10 -42 -46 -69t-83 -27z
M198 243q9 129 101.5 220.5t216.5 91.5t216.5 -91.5t101.5 -220.5h-636z" />
    <glyph glyph-name="uniE606" unicode="&#xe606;" 
d="M243 499h89l-40 -222h101l39 222h90l14 80h-279l-14 -80v0zM677 378l-17 201h-101l50 -302h101l160 302h-101l-92 -201v0zM676 45h-323q-12 0 -20.5 -8.5t-8.5 -20t8.5 -20t20.5 -8.5h323q12 0 20 8.5t8 20t-8 20t-20 8.5v0zM990 780h-956q-16 0 -25 -9t-9 -25v-608
q0 -15 12.5 -24t29.5 -9h948q16 0 25 9t9 24v608q0 16 -9 25t-25 9v0zM974 172q0 -17 -17 -17h-890q-17 0 -17 17v541q0 17 17 17h890q17 0 17 -17v-541v0zM974 172z" />
    <glyph glyph-name="uniE607" unicode="&#xe607;" horiz-adv-x="1026" 
d="M971 775h-459h-459q-6 -1 -15 -10t-23.5 -77.5t-14.5 -187.5q0 -39 1 -72t2 -57t4 -44t4.5 -33t6 -23.5t6 -16t7 -10t7 -6t8 -4t7.5 -2.5h78v90h381h381v-90h78q1 0 7.5 2.5t8 4t7 6t7 10t6 16t6 23.5t4.5 33t4 44t2 57t1 72q0 119 -13 187.5t-26 77.5zM785 499h-692v86
h692v-86v0zM899 513q-12 0 -21 9t-9 21t9 20.5t21 8.5t21 -8.5t9 -20.5t-9 -21t-21 -9zM156 274h715v-41h-715v41zM189 179v-137q2 1 5 4t11 14t14.5 25t12.5 39.5t7 54.5h-50zM163 65q9 -55 14 -72q27 30 46 52l-4 -1q-4 0 -10.5 1t-14 2.5t-16.5 6t-15 11.5zM363 179v-137
q2 1 5 4t11 14t14.5 25.5t12.5 39.5t7 54h-50zM337 65q9 -55 13 -72q28 30 47 52q-37 -4 -60 20zM644 179v-137q-1 1 -4.5 4t-11.5 14t-14.5 25.5t-12.5 39.5t-7 54h50zM670 65q-9 -55 -13 -72q-28 30 -47 52q41 0 60 20zM809 179v-137q-2 1 -5 4t-11.5 14t-15 25.5
t-12 39.5t-7.5 54h51zM835 65q-10 -55 -14 -72q-27 30 -46 52q40 0 60 20z" />
    <glyph glyph-name="uniE608" unicode="&#xe608;" 
d="M1018 692h-1012q-2 0 -2 2v24q0 2 2 2h1012q2 0 2 -2v-24q0 -2 -2 -2zM22 667q-18 -9 -18 -24v-828q5 -18 13 -18h65q3 1 5.5 3t8 12.5t-0.5 27.5q-8 35 -15.5 74t-19 121t-8 162t23.5 136q24 67 54 129.5t47.5 99.5t21.5 66q0 1 0.5 3.5t0.5 8t-1.5 10t-6.5 9.5t-13 8
q-7 1 -18.5 2t-26 1.5t-30 0t-30.5 -1t-26.5 -1t-18.5 -0.5zM265 664l-2 -3q-5 -12 -40.5 -79.5t-65 -126.5t-57 -125t-30.5 -96q-19 -189 70 -437h118q2 0 5 2t7.5 12t3.5 28q-2 29 -53.5 142t-85.5 160q-12 18 -15 33.5t0 26t17.5 23t25.5 20t35 21.5q7 4 10 6
q29 17 67.5 49.5t82.5 79t80.5 108t51.5 120.5q0 2 0.5 4.5t1 9t-1.5 12t-8 10.5t-16 7h-190h-1q-6 0 -10 -7zM1004 667q18 -9 18 -24v-828q-5 -18 -13 -18h-65q-3 1 -5.5 3t-8 12.5t0.5 27.5q8 35 15.5 74t19 121t8.5 162t-24 136q-24 67 -54 129.5t-47.5 99.5t-21.5 66
q0 1 -0.5 3.5t-0.5 8t1.5 10t6.5 9.5t14 8q13 4 52 4t72 -2zM761 664l2 -3q6 -12 41 -79.5t64.5 -126.5t57 -125t30.5 -96q19 -189 -70 -437h-118q-2 0 -5 2t-7 12t-4 28q2 29 53.5 142t85.5 160q12 18 15 33.5t0 26t-17.5 23t-25.5 20t-35 21.5q-7 4 -10 6
q-29 17 -67.5 49.5t-82.5 79t-80.5 108t-51.5 120.5q0 2 -0.5 4.5t-0.5 9t1.5 12t7.5 10.5t16 7h190h1q6 0 10 -7z" />
    <glyph glyph-name="uniE609" unicode="&#xe609;" 
d="M459 367q-2 30 -24.5 46.5t-55.5 14.5l-125 9q-31 -3 -51.5 -26.5t-18.5 -54.5l2 -22q2 -31 25.5 -51.5t54.5 -18.5l123 27q33 2 53 22t18 50zM566.5 354q6.5 16 0 32t-23 22.5t-32.5 0t-22.5 -22.5t0 -32t22.5 -23t32.5 0t23 23zM552 430l4 -1q28 -12 53 1t37 43l64 108
q12 29 0 58t-40 41l-21 8q-29 12 -57.5 0t-40.5 -41l-32 -122q-12 -28 -3.5 -55.5t36.5 -39.5zM509 892q-103 0 -196.5 -40t-161.5 -108t-108 -161.5t-40 -196.5t40 -196.5t108 -161.5t161.5 -108t196.5 -40t197 40t161.5 108t107.5 161.5t40 196.5t-40 196.5t-107.5 161.5
t-161.5 108t-197 40zM508 -44q-117 0 -216 58t-156.5 157t-57.5 216t57.5 216t156.5 156.5t216 57.5t216.5 -57.5t157 -156.5t57.5 -216t-57.5 -216t-157 -157t-216.5 -58zM655 282q-17 28 -42.5 37t-53.5 -6l-3 -2q-27 -16 -31.5 -44t12.5 -55l48 -116q16 -27 46.5 -34.5
t56.5 8.5l19 11q27 16 35 46t-8 57z" />
    <glyph glyph-name="uniE60A" unicode="&#xe60a;" 
d="M254 651l44 -29q10 11 22 18l-13 8l82 43v-11q2 1 11.5 5t15.5 5v49zM618 755l1 -62q5 -2 14 -5t13 -5v23l79 -52l-13 -9q4 -3 11 -9t11 -9l39 29zM835 312l59 -24l-9 182l-48 -25q2 -15 5 -29l17 10l5 -98l-24 10q-2 -7 -5 -26zM733 138q-21 -17 -23 -18l10 -6l-72 -44
v13q-2 -1 -12 -4.5t-15 -4.5v-50l153 90zM416 74q-19 6 -27 9v-24l-75 51l12 8q-1 1 -22 18l-37 -27l151 -101zM194 344l-8 -5l3 79l5 -4l4 29l-35 16l-6 -173l41 28q-1 11 -4 30zM821 406q-1 5 -2 14.5t-1 14.5q-20 107 -101 178q-11 10 -23 17q-24 16 -46 28q-8 4 -27 11
q-48 17 -99 17q-52 0 -104 -17q-15 -5 -28 -11q-24 -12 -48 -29q-1 -2 -9.5 -8t-12.5 -10q-80 -70 -98 -176q-3 -19 -3 -29q0 -3 -0.5 -10t-0.5 -10q0 -16 1 -24q1 -5 2 -15.5t1 -15.5q20 -108 104 -177q4 -4 11.5 -9.5t11.5 -8.5q18 -14 41 -24q13 -6 28 -11
q50 -18 102 -18q51 0 99 18q19 6 27 11q24 10 42 24q8 5 24 18q81 68 102 169q1 5 2.5 14t2.5 13q2 12 2 36v20zM790 360q0 -2 -0.5 -8t-0.5 -8q-15 -109 -103 -176l-67 -40q-45 -19 -100.5 -19t-100.5 19l-69 40q-50 40 -77 96q-3 6 -3 8q0 1 -1 2.5t-1 2.5
q-6 16 -9.5 25.5t-3.5 12.5q-2 8 -6 31q-1 4 -1.5 14.5t-1.5 15.5h1l2 14l-2 2q0 10 4 29v3v3q0 2 0.5 5.5t0.5 5.5q0 1 1 3.5t1 3.5q1 2 1.5 6t1.5 7v1q3 13 6 19q1 1 2 3.5t2 3.5q0 2 2 6t2 7q27 59 76 97q28 24 72 43q48 20 102 20q55 0 101 -20q29 -10 72 -41
q83 -68 97 -175q2 -8 2 -22v-14q0 -6 -1 -14t-1 -12zM516.5 461q-32.5 0 -55.5 -23t-23 -55.5t23 -55.5t55.5 -23t55.5 23t23 55.5t-23 55.5t-55.5 23zM517 331q-22 0 -36.5 15t-14.5 36.5t14.5 36.5t36 15t36.5 -15t15 -37q0 -20 -15 -35.5t-36 -15.5z" />
    <glyph glyph-name="uniE60B" unicode="&#xe60b;" 
d="M192 812q-27 0 -45.5 -18.5t-18.5 -45.5v-896q0 -27 18.5 -45.5t45.5 -18.5h192v1024h-192zM268 -152q-26 0 -45 18.5t-19 45t19 45.5t45.5 19t45 -19t18.5 -45.5t-19 -45t-45 -18.5zM448 812h128v-1024h-128v1024zM832 812h-192v-1024h192q27 0 45.5 18.5t18.5 45.5v896
q0 27 -18.5 45.5t-45.5 18.5z" />
    <glyph glyph-name="uniE60C" unicode="&#xe60c;" 
d="M676 187q-11 -31 -23 -71.5t-18.5 -62.5t-18 -47t-24 -37.5t-33 -21t-49.5 -8.5t-49.5 8.5t-33 21t-24 37.5t-18 47.5t-18.5 63t-24 71.5q-11 32 -36.5 80t-47.5 85.5t-39 84.5t-17 86q0 126 90 216t216.5 90t216.5 -90t90 -216q0 -39 -17 -86t-38.5 -84.5t-47.5 -85.5
t-37 -81zM510 -5q26 0 38 8.5t24 40.5l-118 -14q10 -23 21.5 -29t34.5 -6zM427 109q9 -31 17 -53l138 17q5 16 10 34q1 4 3.5 12.5t3.5 11.5l-172 -21v-1zM419 136l189 24q3 8 10 30h-216q9 -29 17 -54zM510 774q-104 0 -177.5 -73.5t-73.5 -176.5q0 -27 12.5 -62.5
t25 -59.5t36.5 -67q32 -58 47 -90h260q14 32 46 89q25 44 37 68t24.5 59.5t12.5 62.5q0 103 -73.5 176.5t-176.5 73.5zM510 663q-58 0 -99 -41t-41 -98q0 -6 -4 -10t-9.5 -4t-9.5 4t-4 10q0 69 49 118t118 49q5 0 9.5 -4.5t4.5 -10t-4.5 -9.5t-9.5 -4z" />
    <glyph glyph-name="uniE60D" unicode="&#xe60d;" 
d="M940 437h-378v375h-100v-375h-378v-100h378v-380h100v380h378v100z" />
    <glyph glyph-name="uniE60E" unicode="&#xe60e;" 
d="M961 -104l-272 272q86 100 86 231q0 97 -47.5 178.5t-129.5 129.5t-178.5 48t-178.5 -48t-129.5 -129.5t-47.5 -178t47.5 -178.5t129.5 -129.5t178 -47.5q115 0 208 67l275 -274zM106 399.5q0 129.5 92 221.5t221.5 92t221.5 -92t92 -221.5t-92 -221.5t-221.5 -92
t-221.5 92t-92 221.5z" />
    <glyph glyph-name="uniE60F" unicode="&#xe60f;" horiz-adv-x="1025" 
d="M752 330h-172v38h172v-38zM814 438v-178q0 -18 -13 -31t-32 -13h-13q-18 0 -31 13t-13 31v178q0 18 13 31t31 13h13q19 0 32 -13t13 -31zM793 427.5q0 12.5 -9 21.5t-21.5 9t-21.5 -9t-9 -21.5t9 -21.5t21.5 -9t21.5 9t9 21.5zM671 251q0 -96 -68 -163.5t-163.5 -67.5
t-163.5 67.5t-68 163.5t68 163.5t163.5 67.5t163.5 -67.5t68 -163.5zM453 216q0 7 -5 12.5t-12.5 5.5t-13 -5.5t-5.5 -12.5t5.5 -12.5t13 -5.5t12.5 5.5t5 12.5zM504 216q0 7 -5 12.5t-12.5 5.5t-12.5 -5.5t-5 -12.5t5 -12.5t12.5 -5.5t12.5 5.5t5 12.5zM556 216
q0 7 -5.5 12.5t-13 5.5t-12.5 -5.5t-5 -12.5t5 -12.5t12.5 -5.5t13 5.5t5.5 12.5zM560 328q0 16 -11.5 28t-28.5 12h-68q-16 0 -27.5 -12t-11.5 -28v-37q0 -17 11.5 -28.5t27.5 -11.5h68q17 0 28.5 11.5t11.5 28.5v37zM512 800q-139 0 -257 -68.5t-186.5 -186.5t-68.5 -257
t68.5 -257t186.5 -186.5t257 -68.5q104 0 199 40.5t163.5 109t109 163.5t40.5 199t-40.5 199t-109 163.5t-163.5 109t-199 40.5zM860 -60q-68 -68 -157 -105q-91 -39 -191 -39t-191 39q-89 37 -157 105t-105 157q-39 91 -39 191t39 191q37 89 105 157t157 105q91 39 191 39
t191 -39q89 -37 157 -105t105 -157q39 -91 39 -191t-39 -191q-37 -89 -105 -157zM482 307q0 -35 -23 -35q-22 0 -22 35q0 16 6 25t17 9q22 0 22 -34zM446 306q0 -27 13.5 -27t13.5 28q0 27 -13.5 27t-13.5 -28zM535 307q0 -35 -24 -35q-21 0 -22 35q0 16 6.5 25t17.5 9
q22 0 22 -34zM498 306q0 -27 14 -27t14 28q0 27 -14 27t-14 -28z" />
    <glyph glyph-name="uniE610" unicode="&#xe610;" 
d="M714 248q11 1 17 2t12 5t7 12v178l-3 1q-15 14 -35 14q-14 0 -22.5 -7t-10.5 -16h-50v29q-1 3 -4 8t-17 13t-35 9q0 16 -18 33v67h109h2q1 0 2.5 2.5t1.5 6.5v26q-1 6 -13 6h-125q-1 2 -2 5.5t-7.5 9t-15 5.5t-13.5 -5t-6.5 -10t-2.5 -5h-37h-68h-33v-41h126v-62
q-2 -1 -5.5 -3t-8.5 -10t-3 -18l-64 -25v-62q-3 -2 -7.5 -6.5t-12.5 -20t-8 -32.5q0 -11 4 -23t9 -21.5t10 -18t9 -12.5l4 -5l-22 -17l1 -64q0 -9 6 -9h63h120q59 0 58 0v82h62q1 -3 3 -6.5t9 -9t14 -5.5zM576 407h3v-38h-3v38zM508 422v-18h56l1 -29l-57 -1v-19l-69 33z
M429 313h-3v38h3v-38zM441 313h-3v38h3v-38zM452 313h-3v38h3v-38zM520 298v18h-56v28l56 1v20l70 -33zM591 369h-3v38h3v-38zM603 369h-3v38h3v-38zM527 116q-127 0 -216 89t-89 215.5t89 216t216 89.5q98 0 177 -57t110 -147l45 21q-38 102 -128 165.5t-202 63.5
q-96 0 -177 -47t-128 -128t-47 -176.5t47 -176.5t128 -128t177 -47q97 0 178.5 49t127.5 131l-41 24q-40 -71 -111.5 -114t-155.5 -43z" />
    <glyph glyph-name="uniE611" unicode="&#xe611;" 
d="M444 420q-28 -28 -28 -67.5t28 -67.5t68 -28t68 28t28 67.5t-28 67.5t-68 28t-68 -28zM557.5 307.5q-18.5 -18.5 -45 -18.5t-45.5 18.5t-19 45t19 45t45.5 18.5t45 -18.5t18.5 -45t-18.5 -45zM284 577l-22 22q-67 -67 -90.5 -157.5t0.5 -180.5t91 -157l23 23
q-61 61 -83 142.5t-0.5 163.5t81.5 144zM763 599l-23 -22q92 -94 91.5 -225.5t-93.5 -225.5l23 -22q67 67 91 157t0.5 180.5t-89.5 157.5zM330 531l-23 23q-83 -84 -82.5 -202.5t84.5 -202.5l22 23q-74 74 -74.5 179t73.5 180zM717 554l-22 -23q73 -75 72.5 -180t-74.5 -179
l23 -23q83 84 83.5 202.5t-82.5 202.5zM375 486l-23 23q-64 -66 -63.5 -158t65.5 -157l22 23q-55 56 -55.5 134.5t54.5 134.5zM672 509l-23 -23q55 -56 54.5 -134.5t-55.5 -134.5l22 -23q65 65 65.5 157t-63.5 158zM512.5 831q-97.5 0 -186.5 -38t-153.5 -102t-102 -153
t-37.5 -186.5t37.5 -186.5t102 -153t153.5 -102t186.5 -38t186 38t153 102t102.5 153t38 186.5t-38 186.5t-102.5 153t-153 102t-186 38zM512 -96q-91 0 -174 35.5t-143 95.5t-95.5 142.5t-35.5 174t35.5 174t95.5 142.5t143 95.5t174 35.5t174 -35.5t143 -95.5t95.5 -142.5
t35.5 -174t-35.5 -174t-95.5 -142.5t-143 -95.5t-174 -35.5z" />
    <glyph glyph-name="uniE612" unicode="&#xe612;" 
d="M539 611q-66 -11 -114.5 -46.5t-74.5 -83.5t-38.5 -108.5t-12 -118t9.5 -116.5l4 -23q47 108 113 168.5t157 77.5l24 -151q3 -18 21.5 -30t42.5 -8q23 3 40 26q35 53 97.5 141.5t106.5 150.5l45 62q-235 170 -346 258q-23 16 -47 13q-23 -4 -37.5 -22t-14.5 -39l24 -151
v0zM539 611zM768 39h-602v716h-51q-22 0 -36.5 -15t-14.5 -36v-705q0 -22 14.5 -36.5t36.5 -14.5h705q21 0 36 14.5t15 36.5v300l-103 -150v-110v0zM768 39z" />
    <glyph glyph-name="uniE613" unicode="&#xe613;" 
d="M542 640v166q0 11 -9.5 20.5t-20.5 9.5t-20.5 -9.5t-9.5 -20.5v-166q-141 -11 -236 -110t-95 -236h722q0 137 -95 236t-236 110zM512 580q107 0 189.5 -64t105.5 -162h-590q23 98 105.5 162t189.5 64zM422 113h60l9 120h-60zM413 -68h60l9 121h-60zM298 113h60l24 120
h-60zM277 -68h60l21 121h-60zM217 233l-30 -120h60l30 120h-60zM151 -68h60l27 121h-60zM599 113l-6 120h-60l6 -120h60zM539 53l12 -121h60l-12 121h-60zM726 113l-24 120h-60l24 -120h60zM666 53l21 -121h60l-21 121h-60zM807 233h-60l30 -120h60zM846 53h-60l27 -121h60z
" />
    <glyph glyph-name="uniE614" unicode="&#xe614;" 
d="M734 236q45 26 71 73.5t26 103.5q0 84 -55 143t-132.5 59t-132.5 -59t-55 -142q0 -56 26.5 -103.5t70.5 -73.5q-84 -28 -136 -103q-33 -44 -51.5 -100.5t-18.5 -110.5q0 -10 6.5 -16.5t16 -6.5t16 6.5t6.5 16.5q0 42 14.5 92.5t46.5 92.5q71 101 191 101q50 0 93 -19
t72 -49t49.5 -68t30 -76t9.5 -74q0 -10 6.5 -16.5t16 -6.5t15.5 6.5t6 16.5q0 58 -21.5 119t-70.5 116.5t-116 77.5zM500 413q0 65 42.5 111t101.5 46t101.5 -46t42.5 -111t-42.5 -111.5t-101.5 -46.5t-101.5 46.5t-42.5 111.5zM325 841q-1 8 -7.5 13.5t-15.5 5.5
q-8 -1 -13.5 -7.5t-5.5 -15.5q7 -79 -44.5 -139t-131.5 -66q-8 -1 -13.5 -7.5t-5.5 -15.5q2 -10 9 -15t14 -5q96 9 159 82.5t55 169.5zM434 849q-1 8 -7.5 14t-15.5 5q-8 0 -13.5 -7t-5.5 -16q10 -123 -71 -217.5t-204 -104.5q-9 -1 -14.5 -7.5t-4.5 -15.5q1 -10 8 -15
q7 -4 14 -4q92 7 167 59t114.5 134.5t32.5 174.5zM105 684q56 4 94 48q35 48 32 101q-1 8 -7.5 14t-15.5 5q-8 -1 -13.5 -7.5t-5.5 -15.5q2 -41 -23 -69q-26 -30 -65 -33q-8 -1 -13.5 -7.5t-5.5 -15.5q2 -10 9 -15q6 -5 14 -5z" />
    <glyph glyph-name="uniE615" unicode="&#xe615;" 
d="M774 860h-667q-9 0 -16 -7t-7 -16v-840q0 -9 6.5 -15.5t15.5 -6.5l527 -67q9 0 15.5 6.5t6.5 16.5v44h119q9 0 16 6.5t7 15.5v839q1 9 -5 16q-8 8 -18 8zM624 -60l-509 65v822l508 -64v-113h-49q-4 0 -4 -4v-90q0 -4 4 -4h49v-578h1v-34zM655 6v765q0 9 -6.5 15.5
t-15.5 6.5l-281 36h413v-139h-1h-16q-4 0 -4 -5v-83q0 -4 4 -4h16h1v-592h-110zM902 710q7 5 2 11t-13 2l-39 -21q-9 -4 -3 -10.5t13 -1.5zM924 660q-1 7 -10 8h-45q-9 0 -7 -7q2 -8 10 -9h45q9 0 7 8zM857 775q-8 2 -12 -6l-21 -40q-4 -8 4 -10t12 6l21 40q4 7 -4 10z
M581 396h-8q-4 0 -7 -2.5t-3 -5.5v-73q0 -7 10 -8h8q10 0 10 8v73q0 3 -3 5.5t-7 2.5z" />
    <glyph glyph-name="uniE616" unicode="&#xe616;" 
d="M734 318h-105v451q0 39 -30 66t-72 27h-156q-42 0 -72 -27t-30 -66v-770q0 -39 30 -66t72 -27h156q45 0 76 31q26 27 26 62v249h105q9 0 15 6t6 14v29q0 9 -6 15t-15 6zM577 -38q-19 -20 -50 -20h-156q-27 0 -46 17t-19 40v770q0 24 19 40.5t46 16.5h155q28 0 47 -16.5
t19 -40.5v-451h-105q-8 0 -14 -6t-6 -14v-29q0 -9 6 -14.5t14 -5.5h106v-250q0 -21 -16 -37zM522 509q16 0 26.5 10t10.5 23v198q0 13 -10.5 23t-26.5 10h-149q-16 0 -27 -9.5t-11 -23.5v-198q0 -13 11 -23t27 -10h149zM351 542v198q0 7 6.5 12t15.5 5h149q9 0 15.5 -5
t6.5 -12v-198q0 -7 -6.5 -12t-15.5 -5h-149q-9 0 -15.5 5t-6.5 12zM545 434v8q0 13 -11.5 23t-26.5 10h-120q-15 0 -26.5 -9.5t-11.5 -23.5v-8q0 -14 11.5 -23.5t26.5 -9.5h120q16 0 27 9.5t11 23.5zM365 434v8q0 7 6.5 12t15.5 5h120q9 0 15.5 -5t6.5 -12v-8q0 -8 -6.5 -13
t-15.5 -5h-120q-9 0 -15.5 5t-6.5 13z" />
    <glyph glyph-name="uniE617" unicode="&#xe617;" 
d="M647 545q0 55 -40 94t-96 39t-96 -39t-40 -94v-3v-179h272v179v3zM633 539v-162h-245v162h1q-1 3 -1 6q0 49 36 84t87 35t86.5 -35t35.5 -84v-6zM375 354h272v-27h-272v27zM268 316v-359h496v359h-496zM749 -28h-466v329h466v-329zM516 -10q61 0 104 43t43 103.5
t-43 103.5t-104 43t-104 -43t-43 -103.5t43 -103.5t104 -43zM516 251q47 0 80.5 -33.5t33.5 -81t-33.5 -81t-80.5 -33.5t-80.5 33.5t-33.5 81t33.5 81t80.5 33.5zM516 51q35 0 60.5 25t25.5 60.5t-25.5 60.5t-60.5 25t-60.5 -25t-25.5 -60.5t25.5 -60.5t60.5 -25zM516 210
q30 0 51.5 -21.5t21.5 -52t-21.5 -51.5t-51.5 -21t-51.5 21t-21.5 51.5t21.5 52t51.5 21.5zM516 137zM489 137q0 11 8 18.5t19 7.5t19 -7.5t8 -18.5t-8 -19t-19 -8t-19 8t-8 19zM505 830h15v-92h-15v92zM628 707l-14 7l42 83l13 -7zM709 635l-9 12l73 56l9 -12zM355 783
l13 7l42 -82l-14 -7zM242 685l9 12l73 -56l-9 -13zM516 51q35 0 60.5 25t25.5 60.5t-25.5 60.5t-60.5 25t-60.5 -25t-25.5 -60.5t25.5 -60.5t60.5 -25zM516 210q30 0 51.5 -21.5t21.5 -52t-21.5 -51.5t-51.5 -21t-51.5 21t-21.5 51.5t21.5 52t51.5 21.5zM857 196l-11 -6
l-1 -1q31 -32 31 -77q0 -47 -34 -81l4 -2l8 -5q35 37 35 88q0 48 -32 84zM823 172l-11 -7q26 -20 26 -53q0 -36 -30 -57l11 -6q31 24 31 63q0 36 -27 60zM889 215l-11 -7q34 -42 34 -96q0 -57 -37 -99l12 -7q39 46 39 106q0 58 -37 103zM182 196l11 -6l1 -1q-31 -33 -31 -77
q0 -48 34 -81l-4 -2l-8 -5q-35 37 -35 88q0 48 32 84zM216 171l11 -6q-26 -20 -26 -53q0 -36 30 -57l-11 -6q-31 24 -31 63q0 36 27 59zM150 214l12 -6q-35 -42 -35 -96q0 -57 38 -100l-12 -7q-39 46 -39 107q0 58 36 102z" />
    <glyph glyph-name="uniE618" unicode="&#xe618;" 
d="M450 14q-28 0 -48 18l-313 271q-23 20 -25 50t18 52.5t50.5 24.5t53.5 -18l254 -221l388 485q18 24 48.5 27.5t54.5 -15t27.5 -48.5t-15.5 -54l-435 -545q-20 -24 -51 -27h-7v0z" />
    <glyph glyph-name="uniE619" unicode="&#xe619;" 
d="M577 803h-133q-8 0 -16.5 -16.5t-12.5 -33.5l-5 -16h200l-2 7q-1 6 -4 16l-8 20q-3 10 -8.5 16.5t-10.5 6.5zM244 67q0 -41 29.5 -70.5t70.5 -29.5h333q41 0 70 29.5t29 70.5l67 536h-665zM610 502h67v-435h-67v435zM477 502h67v-435h-67v435zM344 502h66v-435h-66v435z
M826 737h-632q-21 0 -35.5 -15t-14.5 -36v-50h732v50q0 21 -14.5 36t-35.5 15z" />
    <glyph glyph-name="uniE61A" unicode="&#xe61a;" 
d="M855 552q8 9 8 21t-8 20l-50 50q-8 8 -20 8t-21 -8l-231 -232q-9 -9 -21 -9t-21 9l-231 232q-9 8 -21 8t-20 -8l-50 -50q-8 -8 -8 -20t8 -21l232 -231q9 -9 9 -21t-9 -21l-232 -231q-8 -9 -8 -21t8 -20l50 -50q8 -8 20 -8t21 8l231 232q9 9 21 9t21 -9l231 -232
q9 -8 21 -8t20 8l50 50q8 8 8 20t-8 21l-232 231q-9 9 -9 21t9 21z" />
    <glyph glyph-name="uniE61B" unicode="&#xe61b;" 
d="M512 748q-91 0 -174 -35.5t-143 -95.5t-95.5 -143t-35.5 -174t35.5 -174t95.5 -143t143 -95.5t174 -35.5t174 35.5t143 95.5t95.5 143t35.5 174t-35.5 174t-95.5 143t-143 95.5t-174 35.5zM773 113h-522v249l182 -126q34 -23 79 -23t78 23l183 126v-249zM773 435
l-217 -150q-17 -13 -44 -13t-44 13l-217 150v52h522v-52z" />
    <glyph glyph-name="uniE61C" unicode="&#xe61c;" 
d="M445 232q106 -106 135 -77q2 2 5 6q15 15 23.5 21t23 10t33 -4.5t43.5 -28.5q14 -11 22 -21.5t12 -19t2.5 -19t-3.5 -16.5t-9.5 -16t-11.5 -14l-14 -14q-10 -10 -13 -12q-31 -32 -125 3.5t-191.5 132.5t-133.5 191t-5 125q3 3 12.5 13t14 14.5t14 12t15.5 9.5t16.5 3.5
t19 -2.5t19 -12t21.5 -22q21 -25 29.5 -43.5t4.5 -33.5t-10 -23t-21 -23q-4 -4 -5 -6q-29 -28 77 -134zM520 477q-16 2 -27 -9q-8 -8 -8 -20.5t8 -21.5q4 -3 8 -5.5t7 -2.5l2 -1q48 -8 79.5 -40t40.5 -79q1 -10 8 -17q9 -9 21.5 -9t20.5 9q5 5 7.5 11.5t1.5 10.5v4
q-10 65 -57 112.5t-112 57.5zM666 453q41 -41 59.5 -86.5t12.5 -85.5q-2 -17 8 -28q10 -8 22 -8t21 8q3 4 5.5 8.5t2.5 7.5l1 4q6 44 -12.5 104t-77 119t-118.5 77.5t-105 12.5q-12 -2 -19 -9q-8 -9 -8.5 -21t8.5 -22q5 -4 12 -6t11 -2h4q40 6 85.5 -12.5t87.5 -60.5z
M666 453z" />
  </font>
</defs>
</svg>
